<?xml version="1.0" standalone="no"?>
<!DOCTYPE svg PUBLIC "-//W3C//DTD SVG 20010904//EN"
 "http://www.w3.org/TR/2001/REC-SVG-20010904/DTD/svg10.dtd">
<svg version="1.0" xmlns="http://www.w3.org/2000/svg"
 width="400.000000pt" height="400.000000pt" viewBox="0 0 400.000000 400.000000"
 preserveAspectRatio="xMidYMid meet">
<metadata>
Created by potrace 1.14, written by Peter Selinger 2001-2017
</metadata>
<g transform="translate(0.000000,400.000000) scale(0.100000,-0.100000)"
fill="#000000" stroke="none">
<path d="M1950 3683 c-50 -19 -689 -306 -1120 -504 -96 -44 -251 -115 -345
-157 l-170 -78 -3 -430 -2 -431 562 -256 c310 -141 707 -321 883 -402 176 -80
329 -148 340 -151 18 -4 122 40 445 188 l65 30 -62 28 c-34 16 -286 131 -560
255 -274 125 -565 258 -648 295 -82 38 -229 105 -325 148 l-175 80 -3 210 c-2
160 1 212 10 219 7 6 189 90 403 188 215 98 419 191 455 207 36 17 88 40 115
53 28 12 72 32 99 45 61 29 32 38 361 -113 66 -30 210 -96 320 -145 279 -126
538 -246 553 -255 8 -6 12 -41 12 -118 l0 -110 98 -45 c53 -25 111 -51 127
-59 215 -97 278 -125 286 -125 15 0 12 667 -3 677 -13 7 -413 192 -713 327
-82 38 -175 80 -205 94 -138 63 -340 156 -390 179 -30 15 -102 46 -160 71 -58
24 -130 55 -160 68 -57 25 -65 26 -90 17z"/>
<path d="M1635 2649 c-132 -61 -241 -112 -244 -114 -5 -6 49 -31 714 -333 121
-55 380 -173 575 -262 195 -89 382 -175 416 -190 l61 -28 2 -210 2 -211 -43
-19 c-24 -11 -153 -70 -288 -132 -135 -62 -333 -152 -440 -200 -107 -48 -230
-104 -273 -124 -43 -20 -89 -36 -102 -36 -22 0 -174 67 -695 305 -124 57 -283
130 -355 162 l-130 59 -3 110 c-1 60 -7 113 -12 118 -4 4 -120 59 -257 121
l-248 114 -3 -337 c-2 -298 0 -338 14 -349 8 -6 68 -35 132 -64 64 -29 149
-67 187 -84 112 -52 873 -400 1070 -490 258 -118 266 -120 324 -107 48 11 246
97 616 267 105 48 368 168 585 267 217 99 405 186 418 194 l22 15 0 423 -1
423 -99 47 c-55 26 -116 54 -137 62 -21 9 -72 32 -113 51 -69 32 -238 109
-655 298 -88 40 -299 137 -470 215 -170 78 -314 143 -320 145 -5 2 -118 -46
-250 -106z"/>
</g>
</svg>
